<?xml version="1.0" encoding="UTF-8"?>
<!DOCTYPE svg PUBLIC "-//W3C//DTD SVG 1.1//EN" "http://www.w3.org/Graphics/SVG/1.1/DTD/svg11.dtd">
<svg version="1.1" xmlns="http://www.w3.org/2000/svg" xmlns:xlink="http://www.w3.org/1999/xlink" x="0" y="0" width="155" height="40" viewBox="0, 0, 155, 40">
  <g id="Layer_1">
    <path d="M67.339,30.357 C67.339,30.357 63.114,32.946 45.299,29.268 C45.256,29.232 45.212,29.195 45.155,29.159 C43.878,28.175 43.708,27.622 42.754,29.248 L42.754,29.248 C42.719,29.305 42.684,29.375 42.649,29.433 C42.649,29.433 42.388,28.928 41.521,29.531 C41.469,29.563 41.432,29.593 41.381,29.638 C41.369,29.653 41.343,29.669 41.331,29.683 C41.305,29.699 41.281,29.728 41.256,29.757 C41.231,29.773 41.22,29.801 41.194,29.817 C41.182,29.832 41.17,29.846 41.144,29.862 C41.132,29.877 41.107,29.906 41.095,29.92 L41.095,29.92 C40.492,30.609 40.17,31.719 40.598,33.211 C40.62,33.304 40.655,33.395 40.69,33.487 C38.797,33.504 38.357,31.405 38.525,30.551 C38.637,29.973 39.221,28.61 40.322,28.202 C39.589,27.549 37.622,25.949 35.26,25.236 C32.229,24.297 9.228,5.421 6.991,-0.052 C6.991,-0.052 4.888,2.039 13.049,9.497 C13.049,9.497 7.315,7.049 3.547,1.873 C3.547,1.873 1.139,4.654 10.42,10.687 C10.42,10.687 3.663,9.073 0.574,5.001 C0.574,5.001 -0.185,8.084 8.315,11.832 C8.315,11.832 3.851,12.155 0.968,9.972 C0.968,9.972 1.87,13.478 7.49,13.379 C7.49,13.379 13.598,21.03 21.55,25.488 C27.526,28.848 21.791,33.03 19.832,34.148 C17.875,35.28 10.337,40.052 10.337,40.052 C10.337,40.052 28.606,33.299 41.112,34.451 C41.657,35.418 42.4,36.029 42.894,35.635 C43.095,35.468 43.298,35.153 43.482,34.785 C44.955,35.075 46.304,35.498 47.492,36.085 C49.417,37.053 53.193,39.387 56.612,38.425 C56.612,38.425 53.988,37.803 53.183,36.804 C53.183,36.804 57.848,38.317 61.77,36.757 C59.343,36.698 57.245,36.381 56.726,35.236 C56.726,35.236 62.485,36.112 64.334,34.205 C61.712,34.245 60.2,33.809 59.206,33.274 C59.208,33.301 66.98,33.838 67.339,30.357 z M44.882,34.554 C45.116,33.817 44.247,32.702 44.247,32.702 C43.96,31.591 45.104,30.896 45.445,32.327 C45.775,33.773 44.882,34.554 44.882,34.554 z" fill="#A8BCA8"/>
    <path d="M58.888,15.938 L56.926,16.64 Q54.946,14.534 51.382,14.534 Q48.682,14.534 46.981,15.92 Q45.28,17.306 45.28,19.448 Q45.28,21.662 46.963,23.021 Q48.646,24.38 51.508,24.38 Q54.964,24.38 56.944,22.238 L58.798,23.264 Q57.394,24.902 55.621,25.631 Q53.848,26.36 51.382,26.36 Q47.926,26.36 45.64,24.632 Q43.03,22.652 43.03,19.448 Q43.03,16.298 45.676,14.3 Q47.98,12.554 51.382,12.554 Q56.278,12.554 58.888,15.938 z" fill="#FF0000"/>
    <path d="M78.562,19.466 Q78.562,22.67 75.934,24.65 Q73.63,26.378 70.21,26.378 Q66.754,26.378 64.45,24.632 Q61.822,22.652 61.822,19.466 Q61.822,16.334 64.486,14.318 Q66.826,12.554 70.21,12.554 Q73.612,12.554 75.916,14.318 Q78.562,16.334 78.562,19.466 z M76.312,19.466 Q76.312,17.18 74.368,15.758 Q72.694,14.534 70.21,14.534 Q67.492,14.534 65.782,15.929 Q64.072,17.324 64.072,19.466 Q64.072,21.68 65.746,23.039 Q67.42,24.398 70.21,24.398 Q72.982,24.398 74.647,23.03 Q76.312,21.662 76.312,19.466 z" fill="#FF0000"/>
    <path d="M97.03,26 L94.366,26 L84.394,15.308 L84.394,26 L82.234,26 L82.234,12.968 L84.916,12.968 L94.87,23.66 L94.87,12.968 L97.03,12.968 z" fill="#FF0000"/>
    <path d="M109.63,12.968 Q113.032,12.968 115.021,14.777 Q117.01,16.586 117.01,19.628 Q117.01,22.418 114.904,24.272 Q112.942,26 110.044,26 L101.386,26 L101.386,12.968 z M110.224,24.038 Q112.168,24.038 113.419,22.787 Q114.67,21.536 114.67,19.574 Q114.67,17.486 113.329,16.208 Q111.988,14.93 109.81,14.93 L103.546,14.93 L103.546,24.038 z" fill="#FF0000"/>
    <path d="M136.612,19.466 Q136.612,22.67 133.984,24.65 Q131.68,26.378 128.26,26.378 Q124.804,26.378 122.5,24.632 Q119.872,22.652 119.872,19.466 Q119.872,16.334 122.536,14.318 Q124.876,12.554 128.26,12.554 Q131.662,12.554 133.966,14.318 Q136.612,16.334 136.612,19.466 z M134.362,19.466 Q134.362,17.18 132.418,15.758 Q130.744,14.534 128.26,14.534 Q125.542,14.534 123.832,15.929 Q122.122,17.324 122.122,19.466 Q122.122,21.68 123.796,23.039 Q125.47,24.398 128.26,24.398 Q131.032,24.398 132.697,23.03 Q134.362,21.662 134.362,19.466 z" fill="#FF0000"/>
    <path d="M155.062,26 L152.56,26 L149.032,21.032 L142.444,21.032 L142.444,26 L140.284,26 L140.284,12.968 L150.562,12.968 Q152.614,12.968 153.784,14.075 Q154.954,15.182 154.954,17.072 Q154.954,18.728 154,19.736 Q153.118,20.672 151.57,20.924 z M150.238,19.07 Q152.74,19.07 152.74,17.072 Q152.74,14.93 150.04,14.93 L142.444,14.93 L142.444,19.07 z" fill="#FF0000"/>
  </g>
</svg>
